<mxfile host="app.diagrams.net" agent="Mozilla/5.0 (Windows NT 10.0; Win64; x64) AppleWebKit/537.36 (KHTML, like Gecko) Chrome/132.0.0.0 Safari/537.36 OPR/117.0.0.0" version="26.1.0">
  <diagram id="C5RBs43oDa-KdzZeNtuy" name="Page-1">
    <mxGraphModel dx="826" dy="434" grid="1" gridSize="10" guides="1" tooltips="1" connect="1" arrows="1" fold="1" page="1" pageScale="1" pageWidth="827" pageHeight="1169" math="0" shadow="0">
      <root>
        <mxCell id="WIyWlLk6GJQsqaUBKTNV-0" />
        <mxCell id="WIyWlLk6GJQsqaUBKTNV-1" parent="WIyWlLk6GJQsqaUBKTNV-0" />
        <mxCell id="A3bkUaT_DAKk58mA0fja-4" value="" style="edgeStyle=orthogonalEdgeStyle;rounded=0;orthogonalLoop=1;jettySize=auto;html=1;" edge="1" parent="WIyWlLk6GJQsqaUBKTNV-1" source="WIyWlLk6GJQsqaUBKTNV-3" target="A3bkUaT_DAKk58mA0fja-1">
          <mxGeometry relative="1" as="geometry" />
        </mxCell>
        <mxCell id="WIyWlLk6GJQsqaUBKTNV-3" value="Início" style="rounded=1;whiteSpace=wrap;html=1;fontSize=12;glass=0;strokeWidth=1;shadow=0;" parent="WIyWlLk6GJQsqaUBKTNV-1" vertex="1">
          <mxGeometry x="354" y="20" width="120" height="40" as="geometry" />
        </mxCell>
        <mxCell id="A3bkUaT_DAKk58mA0fja-22" style="edgeStyle=orthogonalEdgeStyle;rounded=0;orthogonalLoop=1;jettySize=auto;html=1;" edge="1" parent="WIyWlLk6GJQsqaUBKTNV-1" source="WIyWlLk6GJQsqaUBKTNV-10" target="A3bkUaT_DAKk58mA0fja-16">
          <mxGeometry relative="1" as="geometry" />
        </mxCell>
        <mxCell id="A3bkUaT_DAKk58mA0fja-24" value="Falso" style="edgeLabel;html=1;align=center;verticalAlign=middle;resizable=0;points=[];" vertex="1" connectable="0" parent="A3bkUaT_DAKk58mA0fja-22">
          <mxGeometry x="-0.687" relative="1" as="geometry">
            <mxPoint as="offset" />
          </mxGeometry>
        </mxCell>
        <mxCell id="WIyWlLk6GJQsqaUBKTNV-10" value="metaAtual&lt;div&gt;&amp;gt;=&lt;/div&gt;&lt;div&gt;META_SEMANAL&lt;/div&gt;" style="rhombus;whiteSpace=wrap;html=1;shadow=0;fontFamily=Helvetica;fontSize=12;align=center;strokeWidth=1;spacing=6;spacingTop=-4;" parent="WIyWlLk6GJQsqaUBKTNV-1" vertex="1">
          <mxGeometry x="340" y="670" width="150" height="110" as="geometry" />
        </mxCell>
        <mxCell id="WIyWlLk6GJQsqaUBKTNV-11" value="Fim" style="rounded=1;whiteSpace=wrap;html=1;fontSize=12;glass=0;strokeWidth=1;shadow=0;" parent="WIyWlLk6GJQsqaUBKTNV-1" vertex="1">
          <mxGeometry x="369" y="1080" width="120" height="40" as="geometry" />
        </mxCell>
        <mxCell id="A3bkUaT_DAKk58mA0fja-30" style="edgeStyle=orthogonalEdgeStyle;rounded=0;orthogonalLoop=1;jettySize=auto;html=1;entryX=0.5;entryY=0;entryDx=0;entryDy=0;" edge="1" parent="WIyWlLk6GJQsqaUBKTNV-1" source="A3bkUaT_DAKk58mA0fja-0" target="WIyWlLk6GJQsqaUBKTNV-11">
          <mxGeometry relative="1" as="geometry" />
        </mxCell>
        <mxCell id="A3bkUaT_DAKk58mA0fja-0" value="" style="ellipse;whiteSpace=wrap;html=1;aspect=fixed;" vertex="1" parent="WIyWlLk6GJQsqaUBKTNV-1">
          <mxGeometry x="414" y="1000" width="30" height="30" as="geometry" />
        </mxCell>
        <mxCell id="A3bkUaT_DAKk58mA0fja-6" value="" style="edgeStyle=orthogonalEdgeStyle;rounded=0;orthogonalLoop=1;jettySize=auto;html=1;" edge="1" parent="WIyWlLk6GJQsqaUBKTNV-1" source="A3bkUaT_DAKk58mA0fja-1" target="A3bkUaT_DAKk58mA0fja-5">
          <mxGeometry relative="1" as="geometry" />
        </mxCell>
        <mxCell id="A3bkUaT_DAKk58mA0fja-1" value="sting nomeFuncionario&lt;div&gt;int metaAtual&lt;/div&gt;&lt;div&gt;float META_SEMANA&lt;/div&gt;" style="rounded=0;whiteSpace=wrap;html=1;" vertex="1" parent="WIyWlLk6GJQsqaUBKTNV-1">
          <mxGeometry x="346" y="80" width="136" height="60" as="geometry" />
        </mxCell>
        <mxCell id="A3bkUaT_DAKk58mA0fja-32" style="edgeStyle=orthogonalEdgeStyle;rounded=0;orthogonalLoop=1;jettySize=auto;html=1;" edge="1" parent="WIyWlLk6GJQsqaUBKTNV-1" source="A3bkUaT_DAKk58mA0fja-2" target="A3bkUaT_DAKk58mA0fja-9">
          <mxGeometry relative="1" as="geometry" />
        </mxCell>
        <mxCell id="A3bkUaT_DAKk58mA0fja-2" value="nomeFuncionario" style="shape=manualInput;whiteSpace=wrap;html=1;" vertex="1" parent="WIyWlLk6GJQsqaUBKTNV-1">
          <mxGeometry x="362" y="340" width="104" height="80" as="geometry" />
        </mxCell>
        <mxCell id="A3bkUaT_DAKk58mA0fja-8" style="edgeStyle=orthogonalEdgeStyle;rounded=0;orthogonalLoop=1;jettySize=auto;html=1;" edge="1" parent="WIyWlLk6GJQsqaUBKTNV-1" source="A3bkUaT_DAKk58mA0fja-3" target="A3bkUaT_DAKk58mA0fja-2">
          <mxGeometry relative="1" as="geometry" />
        </mxCell>
        <mxCell id="A3bkUaT_DAKk58mA0fja-3" value="&quot;Qual o nome do funcionário:&quot;" style="shape=display;whiteSpace=wrap;html=1;" vertex="1" parent="WIyWlLk6GJQsqaUBKTNV-1">
          <mxGeometry x="344" y="240" width="140" height="70" as="geometry" />
        </mxCell>
        <mxCell id="A3bkUaT_DAKk58mA0fja-7" style="edgeStyle=orthogonalEdgeStyle;rounded=0;orthogonalLoop=1;jettySize=auto;html=1;" edge="1" parent="WIyWlLk6GJQsqaUBKTNV-1" source="A3bkUaT_DAKk58mA0fja-5" target="A3bkUaT_DAKk58mA0fja-3">
          <mxGeometry relative="1" as="geometry" />
        </mxCell>
        <mxCell id="A3bkUaT_DAKk58mA0fja-5" value="string nomeFuncionario = &quot; &quot;&lt;div&gt;int metaAtual= 0&lt;/div&gt;&lt;div&gt;int ANO_ATUAL = 15000&lt;/div&gt;" style="rounded=0;whiteSpace=wrap;html=1;" vertex="1" parent="WIyWlLk6GJQsqaUBKTNV-1">
          <mxGeometry x="329" y="160" width="170" height="60" as="geometry" />
        </mxCell>
        <mxCell id="A3bkUaT_DAKk58mA0fja-33" style="edgeStyle=orthogonalEdgeStyle;rounded=0;orthogonalLoop=1;jettySize=auto;html=1;entryX=0.5;entryY=0;entryDx=0;entryDy=0;" edge="1" parent="WIyWlLk6GJQsqaUBKTNV-1" source="A3bkUaT_DAKk58mA0fja-9" target="A3bkUaT_DAKk58mA0fja-11">
          <mxGeometry relative="1" as="geometry" />
        </mxCell>
        <mxCell id="A3bkUaT_DAKk58mA0fja-9" value="&quot;Entre com os valores das vendas da semana:&quot;" style="shape=display;whiteSpace=wrap;html=1;" vertex="1" parent="WIyWlLk6GJQsqaUBKTNV-1">
          <mxGeometry x="329" y="450" width="170" height="70" as="geometry" />
        </mxCell>
        <mxCell id="A3bkUaT_DAKk58mA0fja-34" style="edgeStyle=orthogonalEdgeStyle;rounded=0;orthogonalLoop=1;jettySize=auto;html=1;entryX=0.5;entryY=0;entryDx=0;entryDy=0;" edge="1" parent="WIyWlLk6GJQsqaUBKTNV-1" source="A3bkUaT_DAKk58mA0fja-11" target="WIyWlLk6GJQsqaUBKTNV-10">
          <mxGeometry relative="1" as="geometry" />
        </mxCell>
        <mxCell id="A3bkUaT_DAKk58mA0fja-11" value="metaAtual" style="shape=manualInput;whiteSpace=wrap;html=1;" vertex="1" parent="WIyWlLk6GJQsqaUBKTNV-1">
          <mxGeometry x="364" y="550" width="100" height="80" as="geometry" />
        </mxCell>
        <mxCell id="A3bkUaT_DAKk58mA0fja-28" style="edgeStyle=orthogonalEdgeStyle;rounded=0;orthogonalLoop=1;jettySize=auto;html=1;entryX=0;entryY=0.5;entryDx=0;entryDy=0;" edge="1" parent="WIyWlLk6GJQsqaUBKTNV-1" source="A3bkUaT_DAKk58mA0fja-16" target="A3bkUaT_DAKk58mA0fja-0">
          <mxGeometry relative="1" as="geometry">
            <Array as="points">
              <mxPoint x="250" y="1015" />
            </Array>
          </mxGeometry>
        </mxCell>
        <mxCell id="A3bkUaT_DAKk58mA0fja-16" value="&quot;Infelizmesnte a sua meta não foi atingida&quot;" style="shape=display;whiteSpace=wrap;html=1;" vertex="1" parent="WIyWlLk6GJQsqaUBKTNV-1">
          <mxGeometry x="179" y="880" width="150" height="80" as="geometry" />
        </mxCell>
        <mxCell id="A3bkUaT_DAKk58mA0fja-29" style="edgeStyle=orthogonalEdgeStyle;rounded=0;orthogonalLoop=1;jettySize=auto;html=1;entryX=1;entryY=0.5;entryDx=0;entryDy=0;" edge="1" parent="WIyWlLk6GJQsqaUBKTNV-1" source="A3bkUaT_DAKk58mA0fja-17" target="A3bkUaT_DAKk58mA0fja-0">
          <mxGeometry relative="1" as="geometry">
            <Array as="points">
              <mxPoint x="590" y="955" />
            </Array>
          </mxGeometry>
        </mxCell>
        <mxCell id="A3bkUaT_DAKk58mA0fja-17" value="&quot;Você bateu a meta, parabéns&quot;" style="shape=display;whiteSpace=wrap;html=1;" vertex="1" parent="WIyWlLk6GJQsqaUBKTNV-1">
          <mxGeometry x="530" y="900" width="140" height="70" as="geometry" />
        </mxCell>
        <mxCell id="A3bkUaT_DAKk58mA0fja-19" style="edgeStyle=orthogonalEdgeStyle;rounded=0;orthogonalLoop=1;jettySize=auto;html=1;entryX=0;entryY=0;entryDx=70;entryDy=0;entryPerimeter=0;" edge="1" parent="WIyWlLk6GJQsqaUBKTNV-1" source="WIyWlLk6GJQsqaUBKTNV-10" target="A3bkUaT_DAKk58mA0fja-17">
          <mxGeometry relative="1" as="geometry" />
        </mxCell>
        <mxCell id="A3bkUaT_DAKk58mA0fja-21" value="Verdadeiro" style="edgeLabel;html=1;align=center;verticalAlign=middle;resizable=0;points=[];" vertex="1" connectable="0" parent="A3bkUaT_DAKk58mA0fja-19">
          <mxGeometry x="-0.6333" y="3" relative="1" as="geometry">
            <mxPoint as="offset" />
          </mxGeometry>
        </mxCell>
      </root>
    </mxGraphModel>
  </diagram>
</mxfile>
